<svg width="24" height="13" viewBox="0 0 24 13" fill="none" xmlns="http://www.w3.org/2000/svg">
<path d="M23.6436 1.38421C23.669 1.02877 23.4014 0.720049 23.046 0.694661L17.2537 0.28093C16.8983 0.255541 16.5896 0.523101 16.5642 0.878541C16.5388 1.23398 16.8064 1.5427 17.1618 1.56809L22.3104 1.93585L21.9427 7.0845C21.9173 7.43994 22.1849 7.74866 22.5403 7.77405C22.8957 7.79944 23.2045 7.53188 23.2299 7.17644L23.6436 1.38421ZM13.3217 9.72611L12.8655 10.1823C13.1048 10.4217 13.4885 10.4354 13.7443 10.2137L13.3217 9.72611ZM8.80515 5.20957L9.26139 4.75333C9.02542 4.51736 8.64845 4.50026 8.39209 4.71389L8.80515 5.20957ZM0.64944 11.1661C0.375688 11.3942 0.338701 11.8011 0.566828 12.0748C0.794955 12.3486 1.20181 12.3856 1.47556 12.1574L0.64944 11.1661ZM22.5774 0.850655L12.8991 9.23852L13.7443 10.2137L23.4226 1.82583L22.5774 0.850655ZM13.7779 9.26987L9.26139 4.75333L8.34891 5.6658L12.8655 10.1823L13.7779 9.26987ZM8.39209 4.71389L0.64944 11.1661L1.47556 12.1574L9.21821 5.70524L8.39209 4.71389Z" fill="black"/>
</svg>
