<svg width="24" height="14" viewBox="0 0 24 14" fill="none" xmlns="http://www.w3.org/2000/svg">
<path d="M23.9687 13.0037C23.9667 13.556 23.5173 14.002 22.9651 14L13.9651 13.9668C13.4128 13.9647 12.9668 13.5154 12.9688 12.9631C12.9709 12.4108 13.4202 11.9648 13.9725 11.9668L21.9724 11.9963L22.002 3.99637C22.004 3.44409 22.4534 2.99803 23.0056 3.00007C23.5579 3.00211 24.004 3.45147 24.002 4.00375L23.9687 13.0037ZM13.2904 3.25L12.5324 2.59783C12.7142 2.38643 12.9761 2.26057 13.2548 2.25064C13.5335 2.2407 13.8037 2.34759 14.0002 2.54551L13.2904 3.25ZM8.7739 8.5L9.53197 9.15217C9.35233 9.36099 9.0945 9.48646 8.81932 9.49897C8.54414 9.51148 8.27599 9.40993 8.07813 9.21827L8.7739 8.5ZM0.335488 1.71827C-0.061203 1.33401 -0.0712811 0.700929 0.312978 0.304237C0.697237 -0.092453 1.33032 -0.102531 1.72701 0.281728L0.335488 1.71827ZM22.259 13.7045L12.5807 3.95449L14.0002 2.54551L23.6785 12.2955L22.259 13.7045ZM14.0485 3.90217L9.53197 9.15217L8.01582 7.84783L12.5324 2.59783L14.0485 3.90217ZM8.07813 9.21827L0.335488 1.71827L1.72701 0.281728L9.46966 7.78173L8.07813 9.21827Z" fill="black"/>
</svg>
