<svg width="24" height="24" viewBox="0 0 24 24" fill="none" xmlns="http://www.w3.org/2000/svg">
<path d="M3.50175 17.0012H0.502343C0.227397 17.0012 0.00244141 17.2261 0.00244141 17.5011V23.4999C0.00244141 23.7748 0.227397 23.9998 0.502343 23.9998H3.50175C3.7767 23.9998 4.00165 23.7748 4.00165 23.4999V17.5011C4.00165 17.2261 3.7767 17.0012 3.50175 17.0012ZM3.00185 23H1.00224V18.001H3.00185V23Z" fill="black" fill-opacity="0.7"/>
<path d="M16.8289 14.4867H13.8295C13.5545 14.4867 13.3296 14.7117 13.3296 14.9866V23.4949C13.3296 23.7699 13.5545 23.9948 13.8295 23.9948H16.8289C17.1038 23.9948 17.3288 23.7699 17.3288 23.4949V14.9866C17.3288 14.7117 17.1038 14.4867 16.8289 14.4867ZM16.329 22.995H14.3294V15.4865H16.329V22.995Z" fill="black" fill-opacity="0.7"/>
<path d="M10.1658 11.5426H7.16641C6.89146 11.5426 6.6665 11.7676 6.6665 12.0425V23.4953C6.6665 23.7702 6.89146 23.9952 7.16641 23.9952H10.1658C10.4408 23.9952 10.6657 23.7702 10.6657 23.4953V12.0425C10.6657 11.7676 10.4408 11.5426 10.1658 11.5426ZM9.66591 22.9954H7.66631V12.5424H9.66591V22.9954Z" fill="black" fill-opacity="0.7"/>
<path d="M23.4978 7.79303H20.4984C20.2235 7.79303 19.9985 8.01799 19.9985 8.29293V23.4999C19.9985 23.7749 20.2235 23.9998 20.4984 23.9998H23.4978C23.7728 23.9998 23.9977 23.7749 23.9977 23.4999V8.29293C23.9977 8.01799 23.7728 7.79303 23.4978 7.79303ZM22.9979 23H20.9983V8.79283H22.9979V23Z" fill="black" fill-opacity="0.7"/>
<path d="M20.5433 3.93923C20.9033 4.19918 21.3431 4.35914 21.818 4.35914C23.0177 4.35914 23.9977 3.37934 23.9977 2.17958C23.9977 0.979815 23.0177 0 21.818 0C20.6182 0 19.6385 0.974816 19.6385 2.17958C19.6385 2.53951 19.7336 2.87944 19.8935 3.17938L16.619 5.98883C16.2641 5.73888 15.8342 5.5889 15.3693 5.5889C14.7894 5.5889 14.2645 5.81886 13.8696 6.19379L9.85036 3.75427C9.91535 3.54431 9.96044 3.32935 9.96044 3.0994C9.96044 1.89963 8.98071 0.919817 7.78094 0.919817C6.58118 0.919817 5.60119 1.89963 5.60119 3.0994C5.60119 3.49932 5.71623 3.87424 5.91119 4.19917L3.32161 6.65369C2.98668 6.44873 2.60186 6.32375 2.18194 6.32375C0.98218 6.32375 0.00244141 7.30357 0.00244141 8.50333C0.00244141 9.7031 0.98218 10.6829 2.18194 10.6829C3.38171 10.6829 4.36145 9.7031 4.36145 8.50333C4.36145 8.08342 4.23664 7.69349 4.03168 7.36356L6.601 4.92904C6.94093 5.149 7.34591 5.28397 7.78582 5.28397C8.3957 5.28397 8.95065 5.02901 9.34557 4.61909L13.3297 7.03861C13.2447 7.26856 13.1947 7.51352 13.1947 7.77347C13.1947 8.97323 14.1747 9.95305 15.3744 9.95305C16.5742 9.95305 17.5539 8.97323 17.5539 7.77347C17.5539 7.39854 17.4489 7.05361 17.284 6.74867L20.5484 3.94423L20.5433 3.93923ZM2.18194 9.67811C1.53207 9.67811 1.00224 9.1482 1.00224 8.49833C1.00224 7.84846 1.53207 7.31857 2.18194 7.31857C2.49188 7.31857 2.77676 7.44354 2.98672 7.6435C2.98672 7.6435 2.98684 7.6485 2.99184 7.65349C2.99684 7.66349 3.01174 7.6635 3.01674 7.67349C3.2267 7.88845 3.36164 8.1784 3.36164 8.50333C3.36164 9.15321 2.83182 9.68309 2.18194 9.68309V9.67811ZM7.78582 4.27415C7.13595 4.27415 6.60612 3.74427 6.60612 3.09439C6.60612 2.44452 7.13595 1.91462 7.78582 1.91462C8.43569 1.91462 8.96552 2.44452 8.96552 3.09439C8.96552 3.74427 8.43569 4.27415 7.78582 4.27415ZM21.8231 0.999803C22.473 0.999803 23.0028 1.52971 23.0028 2.17958C23.0028 2.82945 22.473 3.35934 21.8231 3.35934C21.1732 3.35934 20.6434 2.82945 20.6434 2.17958C20.6434 1.52971 21.1732 0.999803 21.8231 0.999803ZM15.3744 8.94325C14.7245 8.94325 14.1945 8.41335 14.1945 7.76347C14.1945 7.1136 14.7245 6.58371 15.3744 6.58371C16.0243 6.58371 16.5541 7.1136 16.5541 7.76347C16.5541 8.41335 16.0243 8.94325 15.3744 8.94325Z" fill="black" fill-opacity="0.7"/>
</svg>
