<svg width="25" height="14" viewBox="0 0 25 14" fill="none" xmlns="http://www.w3.org/2000/svg">
<path d="M24.4687 13.0037C24.4667 13.556 24.0173 14.002 23.4651 14L14.4651 13.9668C13.9128 13.9647 13.4668 13.5154 13.4688 12.9631C13.4709 12.4108 13.9202 11.9648 14.4725 11.9668L22.4724 11.9963L22.502 3.99637C22.504 3.44409 22.9534 2.99803 23.5056 3.00007C24.0579 3.00211 24.504 3.45147 24.502 4.00375L24.4687 13.0037ZM13.7904 3.25L13.0324 2.59783C13.2142 2.38643 13.4761 2.26057 13.7548 2.25064C14.0335 2.2407 14.3037 2.34759 14.5002 2.54551L13.7904 3.25ZM9.2739 8.5L10.032 9.15217C9.85233 9.36099 9.5945 9.48646 9.31932 9.49897C9.04414 9.51148 8.77599 9.40993 8.57813 9.21827L9.2739 8.5ZM0.835488 1.71827C0.438797 1.33401 0.428719 0.700929 0.812978 0.304237C1.19724 -0.092453 1.83032 -0.102531 2.22701 0.281728L0.835488 1.71827ZM22.759 13.7045L13.0807 3.95449L14.5002 2.54551L24.1785 12.2955L22.759 13.7045ZM14.5485 3.90217L10.032 9.15217L8.51582 7.84783L13.0324 2.59783L14.5485 3.90217ZM8.57813 9.21827L0.835488 1.71827L2.22701 0.281728L9.96966 7.78173L8.57813 9.21827Z" fill="#FF4F4F"/>
</svg>
