<svg width="25" height="14" viewBox="0 0 25 14" fill="none" xmlns="http://www.w3.org/2000/svg">
<path d="M24.4687 0.99631C24.4667 0.444029 24.0173 -0.00203109 23.4651 6.79493e-06L14.4651 0.033217C13.9128 0.035255 13.4668 0.484619 13.4688 1.0369C13.4709 1.58918 13.9202 2.03524 14.4725 2.0332L22.4724 2.00368L22.502 10.0036C22.504 10.5559 22.9534 11.002 23.5056 10.9999C24.0579 10.9979 24.504 10.5485 24.502 9.99625L24.4687 0.99631ZM13.7904 10.75L13.0324 11.4022C13.2142 11.6136 13.4761 11.7394 13.7548 11.7494C14.0335 11.7593 14.3037 11.6524 14.5002 11.4545L13.7904 10.75ZM9.2739 5.5L10.032 4.84783C9.85233 4.63901 9.5945 4.51354 9.31932 4.50103C9.04414 4.48852 8.77599 4.59007 8.57813 4.78173L9.2739 5.5ZM0.835488 12.2817C0.438797 12.666 0.428719 13.2991 0.812978 13.6958C1.19724 14.0925 1.83032 14.1025 2.22701 13.7183L0.835488 12.2817ZM22.759 0.295507L13.0807 10.0455L14.5002 11.4545L24.1785 1.70449L22.759 0.295507ZM14.5485 10.0978L10.032 4.84783L8.51582 6.15217L13.0324 11.4022L14.5485 10.0978ZM8.57813 4.78173L0.835488 12.2817L2.22701 13.7183L9.96966 6.21827L8.57813 4.78173Z" fill="#A1DF52"/>
</svg>
