<svg width="80" height="80" viewBox="0 0 80 80" fill="none" xmlns="http://www.w3.org/2000/svg">
<rect width="80" height="80" rx="15" fill="#204712"/>
<path d="M52.7633 46.65C52.7633 48.25 52.4299 49.6833 51.7633 50.95C51.13 52.2167 50.23 53.3 49.0633 54.2C47.9299 55.1 46.5633 55.7667 44.9633 56.2C43.3633 56.6333 41.6133 56.85 39.7133 56.85C38.0799 56.85 36.6799 56.75 35.5133 56.55C34.3466 56.35 33.3799 56.1167 32.6133 55.85C31.8466 55.55 31.2633 55.2833 30.8633 55.05C30.4966 54.8167 30.2633 54.7 30.1633 54.7C30.0633 54.7 29.8466 54.9 29.5133 55.3C29.1799 55.7 28.8799 56.0833 28.6133 56.45H28.1633L28.0133 46.5H28.5133C28.8133 47.4 29.1966 48.2833 29.6633 49.15C30.1299 49.9833 30.6299 50.7833 31.1633 51.55C31.7299 52.2833 32.3133 52.9333 32.9133 53.5C33.5466 54.0667 34.1466 54.5 34.7133 54.8C35.2799 55.1 36.0299 55.4 36.9633 55.7C37.8966 56 38.7966 56.15 39.6633 56.15C42.1299 56.15 44.1299 55.4833 45.6633 54.15C47.1966 52.7833 47.9633 50.95 47.9633 48.65C47.9633 47.7167 47.8133 46.9 47.5133 46.2C47.2133 45.5 46.7966 44.9 46.2633 44.4C45.7633 43.8667 45.1633 43.4167 44.4633 43.05C43.7633 42.6833 43.0133 42.35 42.2133 42.05C41.4133 41.75 40.7133 41.5 40.1133 41.3C39.5133 41.1 38.9466 40.9167 38.4133 40.75C37.9133 40.55 37.3799 40.3667 36.8133 40.2C36.2799 40 35.6299 39.75 34.8633 39.45C33.9966 39.1167 33.1633 38.6667 32.3633 38.1C31.5633 37.5 30.8633 36.8167 30.2633 36.05C29.6633 35.25 29.1799 34.3833 28.8133 33.45C28.4466 32.4833 28.2633 31.4667 28.2633 30.4C28.2633 28.6 28.5799 27.05 29.2133 25.75C29.8799 24.45 30.7633 23.3667 31.8633 22.5C32.9633 21.6333 34.2299 21 35.6633 20.6C37.1299 20.1667 38.6633 19.95 40.2633 19.95C41.7633 19.95 43.0466 20.0833 44.1133 20.35C45.1799 20.5833 46.0466 20.85 46.7133 21.15C47.4133 21.45 47.9299 21.7333 48.2633 22C48.6299 22.2333 48.8299 22.35 48.8633 22.35C48.9633 22.35 49.1633 22.15 49.4633 21.75C49.7966 21.35 50.0966 20.95 50.3633 20.55H50.9133V29.8H50.3633C49.9633 28.7 49.4466 27.6167 48.8133 26.55C48.1799 25.45 47.4466 24.4833 46.6133 23.65C45.7799 22.7833 44.8299 22.0833 43.7633 21.55C42.6966 21.0167 41.5133 20.75 40.2133 20.75C39.1799 20.75 38.1966 20.9 37.2633 21.2C36.3633 21.5 35.5633 21.95 34.8633 22.55C34.1966 23.15 33.6633 23.9 33.2633 24.8C32.8966 25.6667 32.7133 26.6667 32.7133 27.8C32.7133 29.5667 33.2466 30.9833 34.3133 32.05C35.3799 33.1167 36.7633 33.9667 38.4633 34.6C39.1299 34.8667 39.7466 35.1 40.3133 35.3C40.9133 35.5 41.4966 35.7 42.0633 35.9C42.6299 36.0667 43.1966 36.25 43.7633 36.45C44.3633 36.65 44.9799 36.8667 45.6133 37.1C47.8799 37.9333 49.6299 39.15 50.8633 40.75C52.1299 42.3167 52.7633 44.2833 52.7633 46.65Z" fill="white"/>
</svg>
